<?xml version="1.0" encoding="UTF-8" standalone="no"?><!-- Generator: Gravit.io --><svg xmlns="http://www.w3.org/2000/svg" xmlns:xlink="http://www.w3.org/1999/xlink" style="isolation:isolate" viewBox="268 262.591 800 800" width="800pt" height="800pt"><defs><clipPath id="_clipPath_LM539IxPLpQAtvHOt41szHrQ7f0vVdkq"><rect x="268" y="262.591" width="800" height="800"/></clipPath></defs><g clip-path="url(#_clipPath_LM539IxPLpQAtvHOt41szHrQ7f0vVdkq)"><rect x="268" y="262.591" width="800" height="800" style="fill:rgb(0,0,0)" fill-opacity="0"/><circle vector-effect="non-scaling-stroke" cx="667.9998750007908" cy="662.5914375510147" r="400" fill="rgb(250,202,21)"/><path d=" M 738.612 591.982 C 798.359 651.791 797.539 747.68 738.972 806.572 C 738.862 806.692 738.732 806.822 738.612 806.942 L 671.412 874.142 C 612.142 933.412 515.713 933.404 456.452 874.142 C 397.182 814.882 397.182 718.442 456.452 659.182 L 493.558 622.076 C 503.398 612.236 520.344 618.776 520.852 632.682 C 521.5 650.404 524.678 668.209 530.542 685.403 C 532.528 691.225 531.109 697.665 526.759 702.015 L 513.672 715.102 C 485.646 743.128 484.767 788.762 512.517 817.062 C 540.541 845.641 586.603 845.811 614.842 817.572 L 682.042 750.382 C 710.233 722.191 710.115 676.625 682.042 648.552 C 678.341 644.858 674.613 641.988 671.701 639.983 C 667.524 637.115 664.948 632.441 664.754 627.377 C 664.358 616.81 668.102 605.921 676.452 597.571 L 697.506 576.516 C 703.027 570.995 711.688 570.317 718.09 574.785 C 725.422 579.905 732.289 585.659 738.612 591.982 L 738.612 591.982 Z  M 879.547 451.04 C 820.286 391.778 723.857 391.77 664.587 451.04 L 597.387 518.24 C 597.267 518.36 597.137 518.49 597.027 518.61 C 538.461 577.502 537.64 673.391 597.387 733.2 C 603.71 739.523 610.577 745.277 617.908 750.396 C 624.31 754.864 632.972 754.185 638.492 748.665 L 659.546 727.61 C 667.896 719.26 671.64 708.371 671.244 697.804 C 671.05 692.741 668.475 688.067 664.297 685.198 C 661.385 683.193 657.657 680.323 653.956 676.629 C 625.883 648.556 625.765 602.99 653.956 574.799 L 721.156 507.609 C 749.395 479.37 795.456 479.54 823.481 508.119 C 851.231 536.419 850.353 582.053 822.326 610.079 L 809.239 623.166 C 804.889 627.516 803.47 633.956 805.456 639.778 C 811.32 656.972 814.498 674.777 815.146 692.499 C 815.655 706.405 832.6 712.945 842.44 703.105 L 879.546 665.999 C 938.817 606.74 938.817 510.3 879.547 451.04 L 879.547 451.04 Z " fill="rgb(26,32,44)"/></g></svg>